<?xml version="1.0" encoding="UTF-8"?><svg id="_图层_1" xmlns="http://www.w3.org/2000/svg" viewBox="0 0 81 81"><defs><style>.cls-1{fill:#ffe1e1;}.cls-2{fill:#ffd300;}.cls-3{fill:#ff886f;}.cls-4{fill:#409eff;}.cls-5{fill:#5483e3;}.cls-6{fill:#53cda2;}</style></defs><path class="cls-4" d="M9.32,3.92c-2.94,0-5.33,2.39-5.33,5.33v62.52c0,2.94,2.39,5.33,5.33,5.33h62.36c2.94,0,5.33-2.39,5.33-5.33V9.24c0-2.94-2.39-5.33-5.33-5.33H9.32ZM9.32-.08h62.36c5.15,0,9.32,4.17,9.32,9.32v62.52c0,5.15-4.17,9.32-9.32,9.32H9.32c-5.15,0-9.32-4.17-9.32-9.32V9.24C0,4.09,4.17-.08,9.32-.08Z"/><path class="cls-5" d="M2.61,21.61c-1.1,0-2-.9-2-2s.9-2,2-2H78.46c1.1,0,2,.9,2,2s-.9,2-2,2H2.61Z"/><path class="cls-1" d="M15.53,28.55h50.04c2.94,0,5.33,2.39,5.33,5.33v31.12c0,2.94-2.39,5.33-5.33,5.33H15.53c-2.94,0-5.33-2.39-5.33-5.33v-31.12c0-2.94,2.39-5.33,5.33-5.33Z"/><path class="cls-3" d="M7.88,11.24c0,1.84,1.49,3.33,3.33,3.33s3.33-1.49,3.33-3.33-1.49-3.33-3.33-3.33-3.33,1.49-3.33,3.33Z"/><path class="cls-2" d="M17.98,11.24c0,1.84,1.49,3.33,3.33,3.33s3.33-1.49,3.33-3.33-1.49-3.33-3.33-3.33-3.33,1.49-3.33,3.33Z"/><path class="cls-6" d="M28.07,11.24c0,1.84,1.49,3.33,3.33,3.33s3.33-1.49,3.33-3.33-1.49-3.33-3.33-3.33-3.33,1.49-3.33,3.33Z"/></svg>